<svg width="520" height="219" viewBox="0 0 520 219" fill="none" xmlns="http://www.w3.org/2000/svg">
<rect x="8" y="8" width="504" height="203" stroke="white" stroke-width="16"/>
<rect x="32" y="34" width="456" height="152" fill="white"/>
<path d="M275.964 160.312C273.26 160.312 270.66 159.879 268.164 159.012C265.703 158.145 263.796 157.001 262.444 155.58L263.952 152.616C265.269 153.933 267.02 155.008 269.204 155.84C271.388 156.637 273.641 157.036 275.964 157.036C279.223 157.036 281.667 156.447 283.296 155.268C284.925 154.055 285.74 152.495 285.74 150.588C285.74 149.132 285.289 147.971 284.388 147.104C283.521 146.237 282.447 145.579 281.164 145.128C279.881 144.643 278.096 144.123 275.808 143.568C273.069 142.875 270.885 142.216 269.256 141.592C267.627 140.933 266.223 139.945 265.044 138.628C263.9 137.311 263.328 135.525 263.328 133.272C263.328 131.435 263.813 129.771 264.784 128.28C265.755 126.755 267.245 125.541 269.256 124.64C271.267 123.739 273.763 123.288 276.744 123.288C278.824 123.288 280.852 123.583 282.828 124.172C284.839 124.727 286.572 125.507 288.028 126.512L286.728 129.58C285.203 128.575 283.573 127.829 281.84 127.344C280.107 126.824 278.408 126.564 276.744 126.564C273.555 126.564 271.145 127.188 269.516 128.436C267.921 129.649 267.124 131.227 267.124 133.168C267.124 134.624 267.557 135.803 268.424 136.704C269.325 137.571 270.435 138.247 271.752 138.732C273.104 139.183 274.907 139.685 277.16 140.24C279.829 140.899 281.979 141.557 283.608 142.216C285.272 142.84 286.676 143.811 287.82 145.128C288.964 146.411 289.536 148.161 289.536 150.38C289.536 152.217 289.033 153.899 288.028 155.424C287.057 156.915 285.549 158.111 283.504 159.012C281.459 159.879 278.945 160.312 275.964 160.312ZM343.004 123.6L326.884 160H323.088L306.968 123.6H311.128L325.064 155.216L339.104 123.6H343.004ZM363.107 123.6H377.927C381.775 123.6 385.172 124.38 388.119 125.94C391.066 127.465 393.354 129.615 394.983 132.388C396.612 135.127 397.427 138.264 397.427 141.8C397.427 145.336 396.612 148.491 394.983 151.264C393.354 154.003 391.066 156.152 388.119 157.712C385.172 159.237 381.775 160 377.927 160H363.107V123.6ZM377.719 156.672C380.908 156.672 383.699 156.048 386.091 154.8C388.483 153.517 390.338 151.767 391.655 149.548C392.972 147.295 393.631 144.712 393.631 141.8C393.631 138.888 392.972 136.323 391.655 134.104C390.338 131.851 388.483 130.1 386.091 128.852C383.699 127.569 380.908 126.928 377.719 126.928H366.955V156.672H377.719ZM469.743 123.6L457.471 160H453.415L442.755 128.956L432.043 160H428.039L415.767 123.6H419.719L430.223 154.904L441.091 123.6H444.679L455.391 155.06L466.051 123.6H469.743Z" fill="#4D4D4D"/>
</svg>
